<svg width="26" height="26" viewBox="0 0 26 26" fill="none" xmlns="http://www.w3.org/2000/svg">
<path d="M12.864 25.7794C9.34783 25.7794 8.93332 25.7608 7.56116 25.7008C6.49113 25.6656 5.43494 25.4481 4.43808 25.0576C2.71332 24.3864 1.34949 23.0221 0.678933 21.297C0.303456 20.2966 0.100936 19.2395 0.0800426 18.1711C0 16.8018 0 16.353 0 12.864C0 9.33782 0.0185813 8.92618 0.0800426 7.56116C0.101393 6.4942 0.303906 5.43862 0.678933 4.4395C1.34876 2.7122 2.7148 1.34668 4.44236 0.677503C5.44096 0.300449 6.49681 0.0974008 7.56402 0.0771839C8.92904 0 9.37785 0 12.864 0C16.4087 0 16.8161 0.0185813 18.1668 0.0771839C19.2368 0.0975756 20.2954 0.300602 21.297 0.677503C23.0241 1.34743 24.3899 2.71269 25.0605 4.4395C25.4423 5.45318 25.6459 6.52526 25.6622 7.60833C25.7423 8.97763 25.7423 9.42501 25.7423 12.9126C25.7423 16.4002 25.7223 16.8575 25.6622 18.2111C25.6409 19.2805 25.4379 20.3386 25.0619 21.3399C24.3896 23.0661 23.0238 24.431 21.297 25.1019C20.2969 25.4767 19.2404 25.6792 18.1725 25.7008C16.8075 25.7794 16.3601 25.7794 12.864 25.7794ZM12.8154 2.26263C9.31924 2.26263 8.95619 2.27978 7.59118 2.34125C6.77644 2.35204 5.96957 2.50239 5.20563 2.78577C4.07753 3.21744 3.18488 4.10646 2.74861 5.23278C2.46304 6.00505 2.31267 6.82074 2.30408 7.64407C2.22833 9.02909 2.22833 9.39214 2.22833 12.864C2.22833 16.2944 2.24119 16.7103 2.30408 18.0868C2.31688 18.9018 2.46716 19.7088 2.74861 20.4737C3.18552 21.5993 4.07802 22.4877 5.20563 22.9193C5.96905 23.2046 6.77625 23.355 7.59118 23.3639C8.97477 23.4439 9.33925 23.4439 12.8154 23.4439C16.3215 23.4439 16.6846 23.4267 18.0382 23.3639C18.8535 23.3539 19.6609 23.2036 20.4252 22.9193C21.5464 22.4839 22.4333 21.5976 22.8693 20.4766C23.1543 19.7037 23.3047 18.8876 23.3138 18.0639H23.3296C23.391 16.6975 23.391 16.333 23.391 12.8411C23.391 9.34926 23.3753 8.98192 23.3138 7.61691C23.301 6.80283 23.1507 5.99678 22.8693 5.23278C22.4343 4.11015 21.5473 3.22213 20.4252 2.78577C19.6611 2.50096 18.8535 2.35057 18.0382 2.34125C16.656 2.26263 16.2944 2.26263 12.8154 2.26263ZM12.864 19.4661C10.1911 19.4678 7.78045 17.8591 6.75625 15.3903C5.73206 12.9214 6.29607 10.0787 8.18526 8.18787C10.0744 6.29705 12.9167 5.73058 15.3864 6.75264C17.8561 7.7747 19.4669 10.184 19.4675 12.8568C19.4636 16.5032 16.5103 19.459 12.864 19.4661ZM12.864 8.56598C10.4958 8.56598 8.57599 10.4858 8.57599 12.854C8.57599 15.2222 10.4958 17.142 12.864 17.142C15.2322 17.142 17.152 15.2222 17.152 12.854C17.1465 10.4881 15.2299 8.57149 12.864 8.56598ZM19.7248 7.54688C18.8749 7.54372 18.1881 6.85306 18.1897 6.0032C18.1913 5.15335 18.8806 4.46524 19.7305 4.46524C20.5803 4.46524 21.2697 5.15334 21.2713 6.00319C21.2717 6.41321 21.1088 6.80651 20.8186 7.09617C20.5284 7.38583 20.1348 7.54801 19.7248 7.54688Z" fill="#D7DAEB"/>
</svg>
