<svg width="26" height="26" viewBox="0 0 26 26" fill="none" xmlns="http://www.w3.org/2000/svg">
<path d="M14.2933 25.728H8.57599V8.57599H14.2933V11.4347C15.512 9.88419 17.3601 8.95987 19.3317 8.91474C22.8773 8.93443 25.7383 11.8197 25.728 15.3653V25.728H20.0106V16.08C19.782 14.4829 18.4123 13.2979 16.7989 13.3014C16.0932 13.3237 15.4271 13.6326 14.9543 14.157C14.4815 14.6813 14.2428 15.3757 14.2933 16.08V25.728ZM5.71733 25.728H0V8.57599H5.71733V25.728ZM2.85866 5.71733C1.27987 5.71733 0 4.43746 0 2.85866C0 1.27987 1.27987 0 2.85866 0C4.43746 0 5.71733 1.27987 5.71733 2.85866C5.71733 3.61683 5.41615 4.34394 4.88004 4.88004C4.34394 5.41615 3.61683 5.71733 2.85866 5.71733Z" fill="#D7DAEB"/>
</svg>
