<svg width="30" height="25" viewBox="0 0 30 25" fill="none" xmlns="http://www.w3.org/2000/svg">
<path d="M26.3769 3.82946C27.6582 3.06347 28.6169 1.85733 29.074 0.436232C27.87 1.15062 26.5527 1.65385 25.1791 1.92417C23.2746 -0.090438 20.2572 -0.580701 17.8129 0.727323C15.3686 2.03535 14.1025 4.81783 14.7221 7.52C9.79036 7.2724 5.19557 4.94279 2.08111 1.11088C0.455728 3.9144 1.28633 7.49825 3.97926 9.30095C3.00547 9.26964 2.05327 9.00599 1.20207 8.53197C1.20207 8.55769 1.20207 8.58342 1.20207 8.60915C1.20263 11.5295 3.26084 14.045 6.12326 14.6238C5.22001 14.8695 4.27257 14.9057 3.35321 14.7295C4.15821 17.227 6.45994 18.9379 9.0834 18.989C6.91058 20.6943 4.22721 21.6192 1.46506 21.6146C0.975477 21.6153 0.486273 21.5872 0 21.5303C2.80491 23.3327 6.06947 24.2894 9.40357 24.2861C14.0421 24.3179 18.4999 22.4893 21.7798 19.2091C25.0597 15.9289 26.888 11.471 26.8557 6.83249C26.8557 6.56663 26.8495 6.30221 26.8371 6.03921C28.0384 5.17104 29.0752 4.09553 29.8988 2.86324C28.7796 3.3593 27.5925 3.68499 26.3769 3.82946Z" fill="#D7DAEB"/>
</svg>
